<svg width="124" height="32" viewBox="0 0 124 32" fill="none" xmlns="http://www.w3.org/2000/svg">
<path d="M21.1075 8.96C21.1075 10.5867 20.6942 11.8 19.8675 12.6C19.0675 13.3733 18.1742 13.76 17.1875 13.76H7.7075C7.7075 14.5067 8.1475 15.1333 9.0275 15.64C9.9075 16.1467 10.7875 16.4 11.6675 16.4C13.2142 16.4 14.4275 16.24 15.3075 15.92L15.7475 15.76C16.3875 15.4667 16.9208 15.32 17.3475 15.32C18.2008 15.32 18.9342 15.92 19.5475 17.12C19.8942 17.84 20.0675 18.4533 20.0675 18.96C20.0675 21.3333 17.2275 22.52 11.5475 22.52C9.57417 22.52 7.81417 22.1867 6.2675 21.52C4.7475 20.8267 3.56083 19.92 2.7075 18.8C1.0275 16.64 0.1875 14.2267 0.1875 11.56C0.1875 8.2 1.2675 5.52 3.4275 3.52C5.61417 1.49333 8.33417 0.479996 11.5875 0.479996C15.2942 0.479996 18.0142 1.78666 19.7475 4.4C20.6542 5.78666 21.1075 7.30666 21.1075 8.96ZM12.6675 10.12C13.6808 10.12 14.1875 9.69333 14.1875 8.84C14.1875 8.22666 13.9475 7.73333 13.4675 7.36C13.0142 6.98666 12.3475 6.8 11.4675 6.8C10.6142 6.8 9.76083 7.16 8.9075 7.88C8.05417 8.57333 7.6275 9.32 7.6275 10.12H12.6675Z" fill="#0A2463"/>
<path d="M43.7463 1.4C45.1329 2.22666 45.8263 3.10666 45.8263 4.04C45.8263 4.57333 45.5596 5.30666 45.0263 6.24L36.7463 20.44C36.4796 20.8933 36.0529 21.3067 35.4663 21.68C34.8796 22.0267 34.2929 22.2 33.7062 22.2C33.1462 22.2 32.5996 22.0667 32.0662 21.8C31.5596 21.5067 31.1996 21.2133 30.9862 20.92L30.6263 20.48L22.3062 6.24C21.7729 5.36 21.5063 4.64 21.5063 4.08C21.5063 3.12 22.1996 2.22666 23.5863 1.4C24.5996 0.81333 25.3996 0.519998 25.9862 0.519998C26.5729 0.519998 27.0263 0.706664 27.3463 1.08C27.6929 1.42666 28.0529 1.96 28.4263 2.68L33.6662 12.76L38.9062 2.68C39.1996 2.17333 39.4129 1.81333 39.5462 1.6C39.7062 1.36 39.9463 1.13333 40.2663 0.919997C40.5863 0.679997 41.0129 0.559997 41.5462 0.559997C42.0796 0.559997 42.8129 0.839997 43.7463 1.4Z" fill="#0A2463"/>
<path d="M67.1231 8.96C67.1231 10.5867 66.7098 11.8 65.8831 12.6C65.0831 13.3733 64.1898 13.76 63.2031 13.76H53.7231C53.7231 14.5067 54.1631 15.1333 55.0431 15.64C55.9231 16.1467 56.8031 16.4 57.6831 16.4C59.2298 16.4 60.4431 16.24 61.3231 15.92L61.7631 15.76C62.4031 15.4667 62.9365 15.32 63.3631 15.32C64.2165 15.32 64.9498 15.92 65.5631 17.12C65.9098 17.84 66.0831 18.4533 66.0831 18.96C66.0831 21.3333 63.2431 22.52 57.5631 22.52C55.5898 22.52 53.8298 22.1867 52.2831 21.52C50.7631 20.8267 49.5765 19.92 48.7231 18.8C47.0431 16.64 46.2031 14.2267 46.2031 11.56C46.2031 8.2 47.2831 5.52 49.4431 3.52C51.6298 1.49333 54.3498 0.479996 57.6031 0.479996C61.3098 0.479996 64.0298 1.78666 65.7631 4.4C66.6698 5.78666 67.1231 7.30666 67.1231 8.96ZM58.6831 10.12C59.6965 10.12 60.2031 9.69333 60.2031 8.84C60.2031 8.22666 59.9631 7.73333 59.4831 7.36C59.0298 6.98666 58.3631 6.8 57.4831 6.8C56.6298 6.8 55.7765 7.16 54.9231 7.88C54.0698 8.57333 53.6431 9.32 53.6431 10.12H58.6831Z" fill="#0A2463"/>
<path d="M81.4528 0.919997C84.1195 0.919997 86.3328 1.94666 88.0928 4C89.8795 6.02666 90.7728 8.50666 90.7728 11.44V18.48C90.7728 19.0933 90.7461 19.56 90.6928 19.88C90.6661 20.1733 90.5595 20.5067 90.3728 20.88C89.9995 21.6 88.9595 21.96 87.2528 21.96C85.3595 21.96 84.2661 21.4667 83.9728 20.48C83.8128 20.0267 83.7328 19.3467 83.7328 18.44V11.4C83.7328 10.3067 83.4128 9.45333 82.7728 8.84C82.1595 8.22666 81.3195 7.92 80.2528 7.92C79.2128 7.92 78.3595 8.24 77.6928 8.88C77.0528 9.52 76.7328 10.36 76.7328 11.4V18.48C76.7328 19.0933 76.7061 19.56 76.6528 19.88C76.6262 20.1733 76.5061 20.5067 76.2928 20.88C75.9461 21.6 74.9195 21.96 73.2128 21.96C71.5328 21.96 70.5061 21.6 70.1328 20.88C69.9461 20.48 69.8261 20.1333 69.7728 19.84C69.7461 19.52 69.7328 19.0533 69.7328 18.44V4.28C69.7328 3.69333 69.7461 3.25333 69.7728 2.96C69.8261 2.64 69.9595 2.29333 70.1728 1.92C70.5461 1.25333 71.5728 0.919997 73.2528 0.919997C74.8795 0.919997 75.8795 1.22666 76.2528 1.84C76.5195 2.29333 76.6528 2.84 76.6528 3.48C76.7595 3.29333 76.9995 3.02666 77.3728 2.68C77.7461 2.33333 78.1061 2.05333 78.4528 1.84C79.3595 1.22666 80.3595 0.919997 81.4528 0.919997Z" fill="#0A2463"/>
<path d="M112.38 1.16C113.953 1.85333 114.74 2.69333 114.74 3.68C114.74 4.16 114.633 4.61333 114.42 5.04C114.206 5.46666 114.1 5.69333 114.1 5.72L103.62 29.16C103.406 29.6667 103.22 30.0533 103.06 30.32C102.926 30.5867 102.7 30.84 102.38 31.08C102.06 31.32 101.66 31.44 101.18 31.44C100.7 31.44 99.993 31.24 99.0597 30.84C97.4864 30.1467 96.6997 29.32 96.6997 28.36C96.6997 27.72 97.9797 24.6667 100.54 19.2L92.5797 5.8C92.0464 4.92 91.7797 4.26666 91.7797 3.84C91.7797 2.98666 92.4997 2.13333 93.9397 1.28C94.8464 0.746663 95.553 0.479996 96.0597 0.479996C96.5664 0.479996 96.9797 0.586663 97.2997 0.799996C97.6197 1.01333 97.8464 1.24 97.9797 1.48C98.1397 1.69333 98.873 2.93333 100.18 5.2C101.513 7.44 102.78 9.53333 103.98 11.48C104.113 11.0533 104.833 9.41333 106.14 6.56C107.446 3.68 108.14 2.14666 108.22 1.96C108.326 1.77333 108.486 1.54666 108.7 1.28C109.046 0.826663 109.526 0.599997 110.14 0.599997C110.78 0.599997 111.526 0.786663 112.38 1.16Z" fill="#0A2463"/>
<path d="M123.12 15.4C123.574 15.8533 123.8 16.7867 123.8 18.2V18.36C123.8 19 123.774 19.48 123.72 19.8C123.694 20.0933 123.56 20.4533 123.32 20.88C122.92 21.6533 121.907 22.04 120.28 22.04C118.68 22.04 117.614 21.7867 117.08 21.28C116.574 20.7733 116.32 19.8133 116.32 18.4V18.24C116.32 17.6267 116.334 17.16 116.36 16.84C116.414 16.52 116.547 16.16 116.76 15.76C117.16 14.96 118.16 14.56 119.76 14.56C121.387 14.56 122.507 14.84 123.12 15.4Z" fill="#F58F29"/>
</svg>
