<svg width="395" height="365" viewBox="0 0 395 365" fill="none" xmlns="http://www.w3.org/2000/svg">
<rect width="395" height="365" rx="30" fill="white"/>
<path d="M153.672 267.184C154.783 267.184 155.749 267.31 156.57 267.562C157.401 267.805 158.059 268.066 158.544 268.346C159.039 268.626 159.337 268.808 159.44 268.892L157.732 271.734C157.583 271.613 157.326 271.445 156.962 271.23C156.607 271.006 156.178 270.81 155.674 270.642C155.17 270.465 154.624 270.376 154.036 270.376C153.187 270.376 152.505 270.539 151.992 270.866C151.488 271.183 151.236 271.645 151.236 272.252C151.236 272.663 151.371 273.031 151.642 273.358C151.913 273.675 152.309 273.974 152.832 274.254C153.364 274.534 154.013 274.828 154.778 275.136C155.45 275.397 156.089 275.701 156.696 276.046C157.312 276.391 157.858 276.797 158.334 277.264C158.819 277.731 159.202 278.272 159.482 278.888C159.771 279.504 159.916 280.209 159.916 281.002C159.916 281.889 159.734 282.663 159.37 283.326C159.015 283.989 158.521 284.544 157.886 284.992C157.261 285.44 156.542 285.776 155.73 286C154.918 286.224 154.064 286.336 153.168 286.336C151.955 286.336 150.863 286.196 149.892 285.916C148.931 285.627 148.151 285.319 147.554 284.992C146.957 284.665 146.607 284.455 146.504 284.362L148.296 281.408C148.408 281.492 148.618 281.627 148.926 281.814C149.243 282.001 149.626 282.192 150.074 282.388C150.531 282.584 151.026 282.752 151.558 282.892C152.099 283.032 152.65 283.102 153.21 283.102C154.218 283.102 154.979 282.892 155.492 282.472C156.005 282.052 156.262 281.506 156.262 280.834C156.262 280.33 156.099 279.887 155.772 279.504C155.445 279.121 154.983 278.771 154.386 278.454C153.798 278.127 153.093 277.796 152.272 277.46C151.451 277.115 150.685 276.713 149.976 276.256C149.276 275.789 148.711 275.22 148.282 274.548C147.853 273.867 147.638 273.031 147.638 272.042C147.638 271.062 147.913 270.208 148.464 269.48C149.024 268.752 149.761 268.187 150.676 267.786C151.6 267.385 152.599 267.184 153.672 267.184ZM161.648 274.506H163.72V269.788H167.248V274.506H169.964V277.46H167.248V281.618C167.248 282.169 167.337 282.598 167.514 282.906C167.691 283.205 167.971 283.354 168.354 283.354C168.643 283.354 168.881 283.298 169.068 283.186C169.255 283.065 169.367 282.981 169.404 282.934L170.664 285.482C170.608 285.538 170.426 285.636 170.118 285.776C169.819 285.916 169.432 286.042 168.956 286.154C168.489 286.275 167.962 286.336 167.374 286.336C166.319 286.336 165.447 286.033 164.756 285.426C164.065 284.81 163.72 283.858 163.72 282.57V277.46H161.648V274.506ZM181.488 286V283.998C181.404 284.203 181.19 284.493 180.844 284.866C180.499 285.239 180.032 285.58 179.444 285.888C178.866 286.187 178.184 286.336 177.4 286.336C176.299 286.336 175.324 286.075 174.474 285.552C173.625 285.02 172.958 284.297 172.472 283.382C171.996 282.458 171.758 281.417 171.758 280.26C171.758 279.103 171.996 278.067 172.472 277.152C172.958 276.228 173.625 275.5 174.474 274.968C175.324 274.436 176.299 274.17 177.4 274.17C178.166 274.17 178.828 274.301 179.388 274.562C179.958 274.814 180.415 275.113 180.76 275.458C181.115 275.794 181.344 276.097 181.446 276.368V274.506H184.974V286H181.488ZM175.244 280.26C175.244 280.904 175.389 281.473 175.678 281.968C175.968 282.453 176.35 282.831 176.826 283.102C177.302 283.373 177.82 283.508 178.38 283.508C178.968 283.508 179.491 283.373 179.948 283.102C180.406 282.822 180.765 282.439 181.026 281.954C181.297 281.459 181.432 280.895 181.432 280.26C181.432 279.625 181.297 279.065 181.026 278.58C180.765 278.085 180.406 277.698 179.948 277.418C179.491 277.138 178.968 276.998 178.38 276.998C177.82 276.998 177.302 277.138 176.826 277.418C176.35 277.689 175.968 278.071 175.678 278.566C175.389 279.051 175.244 279.616 175.244 280.26ZM191.211 286H187.655V274.506H191.211V276.368H191.141C191.207 276.144 191.384 275.859 191.673 275.514C191.972 275.169 192.383 274.861 192.905 274.59C193.428 274.31 194.058 274.17 194.795 274.17C195.327 274.17 195.808 274.249 196.237 274.408C196.676 274.557 196.989 274.707 197.175 274.856L195.775 277.768C195.654 277.619 195.425 277.465 195.089 277.306C194.763 277.147 194.352 277.068 193.857 277.068C193.269 277.068 192.779 277.231 192.387 277.558C191.995 277.875 191.701 278.267 191.505 278.734C191.309 279.191 191.211 279.621 191.211 280.022V286ZM197.796 274.506H199.868V269.788H203.396V274.506H206.112V277.46H203.396V281.618C203.396 282.169 203.485 282.598 203.662 282.906C203.84 283.205 204.12 283.354 204.502 283.354C204.792 283.354 205.03 283.298 205.216 283.186C205.403 283.065 205.515 282.981 205.552 282.934L206.812 285.482C206.756 285.538 206.574 285.636 206.266 285.776C205.968 285.916 205.58 286.042 205.104 286.154C204.638 286.275 204.11 286.336 203.522 286.336C202.468 286.336 201.595 286.033 200.904 285.426C200.214 284.81 199.868 283.858 199.868 282.57V277.46H197.796V274.506ZM215.923 267.52H219.423V282.906H226.353V286H215.923V267.52ZM231.856 281.044C231.884 281.567 232.024 282.033 232.276 282.444C232.528 282.855 232.892 283.177 233.368 283.41C233.853 283.643 234.432 283.76 235.104 283.76C235.711 283.76 236.243 283.685 236.7 283.536C237.167 283.387 237.559 283.205 237.876 282.99C238.203 282.766 238.445 282.551 238.604 282.346L240.074 284.53C239.813 284.857 239.463 285.16 239.024 285.44C238.595 285.711 238.044 285.925 237.372 286.084C236.709 286.252 235.879 286.336 234.88 286.336C233.62 286.336 232.514 286.089 231.562 285.594C230.61 285.099 229.868 284.385 229.336 283.452C228.804 282.519 228.538 281.408 228.538 280.12C228.538 279 228.776 277.992 229.252 277.096C229.728 276.191 230.419 275.477 231.324 274.954C232.239 274.431 233.335 274.17 234.614 274.17C235.818 274.17 236.859 274.403 237.736 274.87C238.623 275.327 239.309 275.999 239.794 276.886C240.279 277.773 240.522 278.855 240.522 280.134C240.522 280.209 240.517 280.363 240.508 280.596C240.508 280.82 240.499 280.969 240.48 281.044H231.856ZM237.19 278.846C237.181 278.547 237.087 278.225 236.91 277.88C236.742 277.535 236.476 277.241 236.112 276.998C235.748 276.755 235.263 276.634 234.656 276.634C234.049 276.634 233.55 276.751 233.158 276.984C232.775 277.217 232.486 277.507 232.29 277.852C232.094 278.188 231.982 278.519 231.954 278.846H237.19ZM251.953 286V283.998C251.869 284.203 251.654 284.493 251.309 284.866C250.964 285.239 250.497 285.58 249.909 285.888C249.33 286.187 248.649 286.336 247.865 286.336C246.764 286.336 245.788 286.075 244.939 285.552C244.09 285.02 243.422 284.297 242.937 283.382C242.461 282.458 242.223 281.417 242.223 280.26C242.223 279.103 242.461 278.067 242.937 277.152C243.422 276.228 244.09 275.5 244.939 274.968C245.788 274.436 246.764 274.17 247.865 274.17C248.63 274.17 249.293 274.301 249.853 274.562C250.422 274.814 250.88 275.113 251.225 275.458C251.58 275.794 251.808 276.097 251.911 276.368V274.506H255.439V286H251.953ZM245.709 280.26C245.709 280.904 245.854 281.473 246.143 281.968C246.432 282.453 246.815 282.831 247.291 283.102C247.767 283.373 248.285 283.508 248.845 283.508C249.433 283.508 249.956 283.373 250.413 283.102C250.87 282.822 251.23 282.439 251.491 281.954C251.762 281.459 251.897 280.895 251.897 280.26C251.897 279.625 251.762 279.065 251.491 278.58C251.23 278.085 250.87 277.698 250.413 277.418C249.956 277.138 249.433 276.998 248.845 276.998C248.285 276.998 247.767 277.138 247.291 277.418C246.815 277.689 246.432 278.071 246.143 278.566C245.854 279.051 245.709 279.616 245.709 280.26ZM261.676 286H258.12V274.506H261.676V276.368H261.606C261.672 276.144 261.849 275.859 262.138 275.514C262.437 275.169 262.848 274.861 263.37 274.59C263.893 274.31 264.523 274.17 265.26 274.17C265.792 274.17 266.273 274.249 266.702 274.408C267.141 274.557 267.454 274.707 267.64 274.856L266.24 277.768C266.119 277.619 265.89 277.465 265.554 277.306C265.228 277.147 264.817 277.068 264.322 277.068C263.734 277.068 263.244 277.231 262.852 277.558C262.46 277.875 262.166 278.267 261.97 278.734C261.774 279.191 261.676 279.621 261.676 280.022V286ZM276.304 274.17C277.088 274.17 277.853 274.333 278.6 274.66C279.346 274.977 279.958 275.486 280.434 276.186C280.919 276.886 281.162 277.801 281.162 278.93V286H277.592V279.546C277.592 278.603 277.368 277.903 276.92 277.446C276.481 276.989 275.902 276.76 275.184 276.76C274.717 276.76 274.269 276.891 273.84 277.152C273.42 277.404 273.074 277.759 272.804 278.216C272.542 278.664 272.412 279.177 272.412 279.756V286H268.856V274.506H272.412V276.34C272.514 276.023 272.748 275.696 273.112 275.36C273.476 275.024 273.938 274.744 274.498 274.52C275.058 274.287 275.66 274.17 276.304 274.17ZM284.121 286V274.506H287.663V286H284.121ZM285.941 271.538C285.353 271.538 284.853 271.333 284.443 270.922C284.041 270.511 283.841 270.021 283.841 269.452C283.841 268.883 284.046 268.388 284.457 267.968C284.867 267.548 285.362 267.338 285.941 267.338C286.323 267.338 286.673 267.436 286.991 267.632C287.308 267.819 287.565 268.071 287.761 268.388C287.957 268.705 288.055 269.06 288.055 269.452C288.055 270.021 287.845 270.511 287.425 270.922C287.014 271.333 286.519 271.538 285.941 271.538ZM298.233 274.17C299.017 274.17 299.783 274.333 300.529 274.66C301.276 274.977 301.887 275.486 302.363 276.186C302.849 276.886 303.091 277.801 303.091 278.93V286H299.521V279.546C299.521 278.603 299.297 277.903 298.849 277.446C298.411 276.989 297.832 276.76 297.113 276.76C296.647 276.76 296.199 276.891 295.769 277.152C295.349 277.404 295.004 277.759 294.733 278.216C294.472 278.664 294.341 279.177 294.341 279.756V286H290.785V274.506H294.341V276.34C294.444 276.023 294.677 275.696 295.041 275.36C295.405 275.024 295.867 274.744 296.427 274.52C296.987 274.287 297.589 274.17 298.233 274.17ZM311.678 292.146C310.838 292.146 310.031 292.067 309.256 291.908C308.491 291.749 307.796 291.502 307.17 291.166C306.545 290.83 306.022 290.391 305.602 289.85L307.758 287.666C307.954 287.918 308.206 288.17 308.514 288.422C308.832 288.683 309.233 288.898 309.718 289.066C310.204 289.243 310.81 289.332 311.538 289.332C312.229 289.332 312.822 289.197 313.316 288.926C313.82 288.665 314.208 288.291 314.478 287.806C314.758 287.321 314.898 286.756 314.898 286.112V285.79H318.384V286.322C318.384 287.591 318.086 288.66 317.488 289.528C316.891 290.396 316.088 291.049 315.08 291.488C314.072 291.927 312.938 292.146 311.678 292.146ZM314.898 286V283.998C314.814 284.203 314.6 284.493 314.254 284.866C313.909 285.239 313.442 285.58 312.854 285.888C312.276 286.187 311.594 286.336 310.81 286.336C309.709 286.336 308.734 286.075 307.884 285.552C307.035 285.02 306.368 284.297 305.882 283.382C305.406 282.458 305.168 281.417 305.168 280.26C305.168 279.103 305.406 278.067 305.882 277.152C306.368 276.228 307.035 275.5 307.884 274.968C308.734 274.436 309.709 274.17 310.81 274.17C311.576 274.17 312.238 274.301 312.798 274.562C313.368 274.814 313.825 275.113 314.17 275.458C314.525 275.794 314.754 276.097 314.856 276.368V274.506H318.384V286H314.898ZM308.654 280.26C308.654 280.904 308.799 281.473 309.088 281.968C309.378 282.453 309.76 282.831 310.236 283.102C310.712 283.373 311.23 283.508 311.79 283.508C312.378 283.508 312.901 283.373 313.358 283.102C313.816 282.822 314.175 282.439 314.436 281.954C314.707 281.459 314.842 280.895 314.842 280.26C314.842 279.625 314.707 279.065 314.436 278.58C314.175 278.085 313.816 277.698 313.358 277.418C312.901 277.138 312.378 276.998 311.79 276.998C311.23 276.998 310.712 277.138 310.236 277.418C309.76 277.689 309.378 278.071 309.088 278.566C308.799 279.051 308.654 279.616 308.654 280.26Z" fill="#666666"/>
<path d="M45.516 177.068C44.9 177.068 44.356 177.2 43.884 177.464C43.42 177.72 43.032 178.024 42.72 178.376C42.408 178.728 42.168 179.048 42 179.336C41.84 179.624 41.752 179.784 41.736 179.816L39.54 178.832C39.556 178.76 39.632 178.58 39.768 178.292C39.904 177.996 40.116 177.66 40.404 177.284C40.692 176.9 41.064 176.524 41.52 176.156C41.984 175.788 42.544 175.484 43.2 175.244C43.864 174.996 44.636 174.872 45.516 174.872C46.468 174.872 47.276 175.004 47.94 175.268C48.604 175.532 49.144 175.896 49.56 176.36C49.976 176.816 50.28 177.34 50.472 177.932C50.664 178.524 50.76 179.148 50.76 179.804C50.76 180.476 50.604 181.156 50.292 181.844C49.988 182.532 49.592 183.2 49.104 183.848C48.616 184.488 48.092 185.088 47.532 185.648C46.972 186.208 46.428 186.708 45.9 187.148C45.38 187.588 44.932 187.948 44.556 188.228C44.188 188.508 43.956 188.684 43.86 188.756H50.628V191H39.972V188.96C40.18 188.792 40.52 188.524 40.992 188.156C41.472 187.788 42.024 187.352 42.648 186.848C43.272 186.336 43.904 185.78 44.544 185.18C45.192 184.58 45.792 183.964 46.344 183.332C46.904 182.7 47.352 182.08 47.688 181.472C48.032 180.864 48.204 180.296 48.204 179.768C48.204 178.776 47.972 178.08 47.508 177.68C47.044 177.272 46.38 177.068 45.516 177.068ZM52.9502 183.092C52.9502 181.692 53.1182 180.476 53.4542 179.444C53.7982 178.412 54.2622 177.56 54.8462 176.888C55.4302 176.208 56.0862 175.704 56.8142 175.376C57.5422 175.04 58.2942 174.872 59.0702 174.872C59.8542 174.872 60.6102 175.04 61.3382 175.376C62.0742 175.704 62.7302 176.208 63.3062 176.888C63.8822 177.56 64.3382 178.412 64.6742 179.444C65.0102 180.476 65.1782 181.692 65.1782 183.092C65.1782 184.54 65.0102 185.78 64.6742 186.812C64.3382 187.844 63.8822 188.692 63.3062 189.356C62.7302 190.012 62.0742 190.5 61.3382 190.82C60.6102 191.132 59.8542 191.288 59.0702 191.288C58.2942 191.288 57.5422 191.132 56.8142 190.82C56.0862 190.5 55.4302 190.012 54.8462 189.356C54.2622 188.692 53.7982 187.844 53.4542 186.812C53.1182 185.78 52.9502 184.54 52.9502 183.092ZM55.5062 183.092C55.5062 184.42 55.6622 185.528 55.9742 186.416C56.2942 187.296 56.7222 187.952 57.2582 188.384C57.8022 188.808 58.4062 189.02 59.0702 189.02C59.7502 189.02 60.3542 188.804 60.8822 188.372C61.4182 187.94 61.8422 187.284 62.1542 186.404C62.4662 185.524 62.6222 184.42 62.6222 183.092C62.6222 181.788 62.4662 180.696 62.1542 179.816C61.8422 178.936 61.4182 178.272 60.8822 177.824C60.3542 177.368 59.7502 177.14 59.0702 177.14C58.4062 177.14 57.8022 177.368 57.2582 177.824C56.7222 178.272 56.2942 178.94 55.9742 179.828C55.6622 180.708 55.5062 181.796 55.5062 183.092ZM85.911 180.86C86.647 180.86 87.279 181.016 87.807 181.328C88.343 181.64 88.755 182.12 89.043 182.768C89.339 183.416 89.487 184.244 89.487 185.252V191H86.955V185.708C86.955 184.756 86.819 184.032 86.547 183.536C86.283 183.04 85.783 182.792 85.047 182.792C84.647 182.792 84.271 182.9 83.919 183.116C83.567 183.332 83.283 183.656 83.067 184.088C82.859 184.512 82.755 185.052 82.755 185.708V191H80.379V185.708C80.379 184.756 80.215 184.032 79.887 183.536C79.567 183.04 79.087 182.792 78.447 182.792C78.039 182.792 77.663 182.896 77.319 183.104C76.975 183.312 76.699 183.632 76.491 184.064C76.283 184.496 76.179 185.044 76.179 185.708V191H73.635V181.148H76.179V182.624C76.267 182.376 76.463 182.116 76.767 181.844C77.079 181.572 77.467 181.34 77.931 181.148C78.395 180.956 78.903 180.86 79.455 180.86C80.055 180.86 80.551 180.972 80.943 181.196C81.343 181.412 81.659 181.684 81.891 182.012C82.131 182.34 82.307 182.668 82.419 182.996C82.531 182.668 82.747 182.34 83.067 182.012C83.395 181.684 83.803 181.412 84.291 181.196C84.779 180.972 85.319 180.86 85.911 180.86ZM92.3409 191V181.148H94.8969V191H92.3409ZM93.6489 178.196C93.2169 178.196 92.8449 178.04 92.5329 177.728C92.2289 177.416 92.0769 177.044 92.0769 176.612C92.0769 176.18 92.2289 175.808 92.5329 175.496C92.8449 175.176 93.2169 175.016 93.6489 175.016C93.9369 175.016 94.2009 175.092 94.4409 175.244C94.6889 175.388 94.8849 175.58 95.0289 175.82C95.1809 176.052 95.2569 176.316 95.2569 176.612C95.2569 177.044 95.1009 177.416 94.7889 177.728C94.4769 178.04 94.0969 178.196 93.6489 178.196ZM103.783 180.86C104.447 180.86 105.091 180.996 105.715 181.268C106.339 181.54 106.851 181.976 107.251 182.576C107.659 183.168 107.863 183.94 107.863 184.892V191H105.283V185.36C105.283 184.472 105.071 183.82 104.647 183.404C104.231 182.98 103.691 182.768 103.027 182.768C102.587 182.768 102.167 182.892 101.767 183.14C101.367 183.388 101.039 183.724 100.783 184.148C100.535 184.572 100.411 185.06 100.411 185.612V191H97.8431V181.148H100.411V182.804C100.483 182.532 100.675 182.248 100.987 181.952C101.307 181.648 101.711 181.392 102.199 181.184C102.687 180.968 103.215 180.86 103.783 180.86Z" fill="#666666"/>
<path d="M70.752 131.368C73.728 131.368 76.044 132.244 77.7 133.996C79.356 135.724 80.184 138.232 80.184 141.52V157H74.352V141.7C74.352 139.924 73.884 138.592 72.948 137.704C72.036 136.792 70.824 136.336 69.312 136.336C67.656 136.336 66.336 136.816 65.352 137.776C64.368 138.712 63.876 140.14 63.876 142.06V157H58.044V141.7C58.044 139.924 57.612 138.592 56.748 137.704C55.884 136.792 54.708 136.336 53.22 136.336C51.588 136.336 50.28 136.816 49.296 137.776C48.312 138.712 47.82 140.14 47.82 142.06V157H41.988V131.8H47.64V134.896C48.408 133.768 49.428 132.904 50.7 132.304C51.972 131.68 53.436 131.368 55.092 131.368C56.82 131.368 58.332 131.692 59.628 132.34C60.924 132.964 61.92 133.876 62.616 135.076C63.48 133.876 64.608 132.964 66 132.34C67.416 131.692 69 131.368 70.752 131.368ZM95.2933 152.788C96.3013 152.788 97.1893 152.644 97.9573 152.356C98.7493 152.044 99.4813 151.564 100.153 150.916L103.141 154.156C101.317 156.244 98.6533 157.288 95.1493 157.288C92.9653 157.288 91.0333 156.868 89.3533 156.028C87.6733 155.164 86.3773 153.976 85.4653 152.464C84.5533 150.952 84.0973 149.236 84.0973 147.316C84.0973 145.42 84.5413 143.716 85.4293 142.204C86.3413 140.668 87.5773 139.48 89.1373 138.64C90.7213 137.776 92.4973 137.344 94.4653 137.344C96.3133 137.344 97.9933 137.74 99.5053 138.532C101.017 139.3 102.217 140.428 103.105 141.916C104.017 143.38 104.473 145.12 104.473 147.136L90.1453 149.908C90.5533 150.868 91.1893 151.588 92.0533 152.068C92.9413 152.548 94.0213 152.788 95.2933 152.788ZM94.4653 141.592C93.0493 141.592 91.8973 142.048 91.0093 142.96C90.1213 143.872 89.6533 145.132 89.6053 146.74L99.0373 144.904C98.7733 143.896 98.2333 143.092 97.4173 142.492C96.6013 141.892 95.6173 141.592 94.4653 141.592ZM128.228 137.632V153.76C128.228 157.312 127.304 159.952 125.456 161.68C123.608 163.408 120.908 164.272 117.356 164.272C115.484 164.272 113.708 164.044 112.028 163.588C110.348 163.132 108.956 162.472 107.852 161.608L110.084 157.576C110.9 158.248 111.932 158.776 113.18 159.16C114.428 159.568 115.676 159.772 116.924 159.772C118.868 159.772 120.296 159.328 121.208 158.44C122.144 157.576 122.612 156.256 122.612 154.48V153.652C121.148 155.26 119.108 156.064 116.492 156.064C114.716 156.064 113.084 155.68 111.596 154.912C110.132 154.12 108.968 153.016 108.104 151.6C107.24 150.184 106.808 148.552 106.808 146.704C106.808 144.856 107.24 143.224 108.104 141.808C108.968 140.392 110.132 139.3 111.596 138.532C113.084 137.74 114.716 137.344 116.492 137.344C119.3 137.344 121.436 138.268 122.9 140.116V137.632H128.228ZM117.608 151.456C119.096 151.456 120.308 151.024 121.244 150.16C122.204 149.272 122.684 148.12 122.684 146.704C122.684 145.288 122.204 144.148 121.244 143.284C120.308 142.396 119.096 141.952 117.608 141.952C116.12 141.952 114.896 142.396 113.936 143.284C112.976 144.148 112.496 145.288 112.496 146.704C112.496 148.12 112.976 149.272 113.936 150.16C114.896 151.024 116.12 151.456 117.608 151.456ZM153.111 137.632V157H147.747V154.768C146.355 156.448 144.339 157.288 141.699 157.288C139.875 157.288 138.219 156.88 136.731 156.064C135.267 155.248 134.115 154.084 133.275 152.572C132.435 151.06 132.015 149.308 132.015 147.316C132.015 145.324 132.435 143.572 133.275 142.06C134.115 140.548 135.267 139.384 136.731 138.568C138.219 137.752 139.875 137.344 141.699 137.344C144.171 137.344 146.103 138.124 147.495 139.684V137.632H153.111ZM142.671 152.68C144.087 152.68 145.263 152.2 146.199 151.24C147.135 150.256 147.603 148.948 147.603 147.316C147.603 145.684 147.135 144.388 146.199 143.428C145.263 142.444 144.087 141.952 142.671 141.952C141.231 141.952 140.043 142.444 139.107 143.428C138.171 144.388 137.703 145.684 137.703 147.316C137.703 148.948 138.171 150.256 139.107 151.24C140.043 152.2 141.231 152.68 142.671 152.68ZM189.494 154.84C188.294 155.656 186.782 156.292 184.958 156.748C183.158 157.204 181.238 157.432 179.198 157.432C176.654 157.432 174.494 157.12 172.718 156.496C170.942 155.848 169.598 154.96 168.686 153.832C167.774 152.68 167.318 151.372 167.318 149.908C167.318 148.564 167.69 147.376 168.434 146.344C169.178 145.312 170.198 144.544 171.494 144.04C170.51 143.512 169.742 142.792 169.19 141.88C168.662 140.968 168.398 139.948 168.398 138.82C168.398 137.452 168.818 136.204 169.658 135.076C170.498 133.948 171.77 133.048 173.474 132.376C175.178 131.704 177.266 131.368 179.738 131.368C181.37 131.368 182.966 131.536 184.526 131.872C186.086 132.184 187.442 132.616 188.594 133.168L186.974 137.632C184.766 136.6 182.426 136.084 179.954 136.084C178.082 136.084 176.666 136.372 175.706 136.948C174.77 137.5 174.302 138.256 174.302 139.216C174.302 140.104 174.614 140.788 175.238 141.268C175.886 141.724 176.858 141.952 178.154 141.952H185.03V146.56H177.794C176.33 146.56 175.202 146.812 174.41 147.316C173.618 147.82 173.222 148.552 173.222 149.512C173.222 150.52 173.726 151.312 174.734 151.888C175.766 152.44 177.338 152.716 179.45 152.716C180.938 152.716 182.426 152.524 183.914 152.14C185.402 151.732 186.662 151.168 187.694 150.448L189.494 154.84ZM211.32 137.632L203.148 157H197.352L189.216 137.632H195.012L200.376 150.808L205.92 137.632H211.32ZM222.84 152.788C223.848 152.788 224.736 152.644 225.504 152.356C226.296 152.044 227.028 151.564 227.7 150.916L230.688 154.156C228.864 156.244 226.2 157.288 222.696 157.288C220.512 157.288 218.58 156.868 216.9 156.028C215.22 155.164 213.924 153.976 213.012 152.464C212.1 150.952 211.644 149.236 211.644 147.316C211.644 145.42 212.088 143.716 212.976 142.204C213.888 140.668 215.124 139.48 216.684 138.64C218.268 137.776 220.044 137.344 222.012 137.344C223.86 137.344 225.54 137.74 227.052 138.532C228.564 139.3 229.764 140.428 230.652 141.916C231.564 143.38 232.02 145.12 232.02 147.136L217.692 149.908C218.1 150.868 218.736 151.588 219.6 152.068C220.488 152.548 221.568 152.788 222.84 152.788ZM222.012 141.592C220.596 141.592 219.444 142.048 218.556 142.96C217.668 143.872 217.2 145.132 217.152 146.74L226.584 144.904C226.32 143.896 225.78 143.092 224.964 142.492C224.148 141.892 223.164 141.592 222.012 141.592ZM247.567 137.344C249.967 137.344 251.899 138.064 253.363 139.504C254.851 140.944 255.595 143.08 255.595 145.912V157H249.979V146.776C249.979 145.24 249.643 144.1 248.971 143.356C248.299 142.588 247.327 142.204 246.055 142.204C244.639 142.204 243.511 142.648 242.671 143.536C241.831 144.4 241.411 145.696 241.411 147.424V157H235.795V137.632H241.159V139.9C241.903 139.084 242.827 138.46 243.931 138.028C245.035 137.572 246.247 137.344 247.567 137.344ZM272.35 156.064C271.798 156.472 271.114 156.784 270.298 157C269.506 157.192 268.678 157.288 267.814 157.288C265.486 157.288 263.698 156.7 262.45 155.524C261.202 154.348 260.578 152.62 260.578 150.34V133.348H266.194V138.064H270.982V142.384H266.194V150.268C266.194 151.084 266.398 151.72 266.806 152.176C267.214 152.608 267.802 152.824 268.57 152.824C269.434 152.824 270.202 152.584 270.874 152.104L272.35 156.064ZM306.705 152.32V157H284.673V153.616L290.649 146.344H286.653V141.988H294.213L298.749 136.48H284.925V131.8H306.165V135.148L300.477 142.096H304.149V146.416H296.949L292.089 152.32H306.705ZM331.209 152.32V157H309.177V153.616L315.153 146.344H311.157V141.988H318.717L323.253 136.48H309.429V131.8H330.669V135.148L324.981 142.096H328.653V146.416H321.453L316.593 152.32H331.209Z" fill="#0A2463"/>
<path d="M40.696 57.88H44.696V79H40.696V57.88ZM57.0748 65.48C57.9708 65.48 58.8454 65.6667 59.6988 66.04C60.5521 66.4027 61.2508 66.984 61.7948 67.784C62.3494 68.584 62.6268 69.6293 62.6268 70.92V79H58.5468V71.624C58.5468 70.5467 58.2908 69.7467 57.7788 69.224C57.2774 68.7013 56.6161 68.44 55.7948 68.44C55.2614 68.44 54.7494 68.5893 54.2588 68.888C53.7788 69.176 53.3841 69.5813 53.0748 70.104C52.7761 70.616 52.6268 71.2027 52.6268 71.864V79H48.5628V65.864H52.6268V67.96C52.7441 67.5973 53.0108 67.224 53.4268 66.84C53.8428 66.456 54.3708 66.136 55.0108 65.88C55.6508 65.6133 56.3388 65.48 57.0748 65.48ZM64.6645 65.864H67.0325V60.472H71.0645V65.864H74.1685V69.24H71.0645V73.992C71.0645 74.6213 71.1658 75.112 71.3685 75.464C71.5712 75.8053 71.8912 75.976 72.3285 75.976C72.6592 75.976 72.9312 75.912 73.1445 75.784C73.3578 75.6453 73.4858 75.5493 73.5285 75.496L74.9685 78.408C74.9045 78.472 74.6965 78.584 74.3445 78.744C74.0032 78.904 73.5605 79.048 73.0165 79.176C72.4832 79.3147 71.8805 79.384 71.2085 79.384C70.0032 79.384 69.0058 79.0373 68.2165 78.344C67.4272 77.64 67.0325 76.552 67.0325 75.08V69.24H64.6645V65.864ZM80.7953 79H76.7313V65.864H80.7953V67.992H80.7153C80.7899 67.736 80.9926 67.4107 81.3233 67.016C81.6646 66.6213 82.1339 66.2693 82.7313 65.96C83.3286 65.64 84.0486 65.48 84.8913 65.48C85.4993 65.48 86.0486 65.5707 86.5393 65.752C87.0406 65.9227 87.3979 66.0933 87.6113 66.264L86.0113 69.592C85.8726 69.4213 85.6113 69.2453 85.2273 69.064C84.8539 68.8827 84.3846 68.792 83.8193 68.792C83.1473 68.792 82.5873 68.9787 82.1393 69.352C81.6913 69.7147 81.3553 70.1627 81.1313 70.696C80.9073 71.2187 80.7953 71.7093 80.7953 72.168V79ZM95.2325 79.384C93.8352 79.384 92.5872 79.0853 91.4885 78.488C90.4005 77.8907 89.5472 77.0747 88.9285 76.04C88.3098 74.9947 88.0005 73.8053 88.0005 72.472C88.0005 71.1387 88.3098 69.9493 88.9285 68.904C89.5472 67.848 90.4005 67.016 91.4885 66.408C92.5872 65.7893 93.8352 65.48 95.2325 65.48C96.6405 65.48 97.8832 65.7893 98.9605 66.408C100.038 67.016 100.881 67.848 101.489 68.904C102.097 69.9493 102.401 71.1387 102.401 72.472C102.401 73.8053 102.097 74.9947 101.489 76.04C100.881 77.0747 100.038 77.8907 98.9605 78.488C97.8832 79.0853 96.6405 79.384 95.2325 79.384ZM95.2325 76.008C95.9045 76.008 96.4858 75.8587 96.9765 75.56C97.4778 75.2507 97.8618 74.8293 98.1285 74.296C98.4058 73.752 98.5445 73.1387 98.5445 72.456C98.5445 71.7733 98.4058 71.16 98.1285 70.616C97.8618 70.072 97.4778 69.6453 96.9765 69.336C96.4858 69.016 95.9045 68.856 95.2325 68.856C94.5605 68.856 93.9738 69.016 93.4725 69.336C92.9818 69.6453 92.5978 70.072 92.3205 70.616C92.0432 71.16 91.9045 71.7733 91.9045 72.456C91.9045 73.1387 92.0432 73.752 92.3205 74.296C92.5978 74.8293 92.9818 75.2507 93.4725 75.56C93.9738 75.8587 94.5605 76.008 95.2325 76.008ZM110.824 79.384C109.576 79.384 108.478 79.0853 107.528 78.488C106.59 77.88 105.854 77.0533 105.32 76.008C104.798 74.952 104.536 73.7627 104.536 72.44C104.536 71.1173 104.798 69.9333 105.32 68.888C105.854 67.832 106.59 67 107.528 66.392C108.478 65.784 109.576 65.48 110.824 65.48C111.71 65.48 112.494 65.624 113.176 65.912C113.87 66.2 114.424 66.5413 114.84 66.936C115.256 67.3307 115.502 67.6827 115.576 67.992V56.984H119.656V79H115.624V76.712C115.454 77.0853 115.139 77.48 114.68 77.896C114.222 78.312 113.662 78.664 113 78.952C112.339 79.24 111.614 79.384 110.824 79.384ZM111.976 76.152C112.659 76.152 113.272 75.9973 113.816 75.688C114.36 75.368 114.787 74.9307 115.096 74.376C115.416 73.8107 115.576 73.1653 115.576 72.44C115.576 71.7147 115.416 71.0747 115.096 70.52C114.787 69.9547 114.36 69.512 113.816 69.192C113.272 68.872 112.659 68.712 111.976 68.712C111.347 68.712 110.771 68.872 110.248 69.192C109.726 69.5013 109.304 69.9387 108.984 70.504C108.675 71.0587 108.52 71.704 108.52 72.44C108.52 73.176 108.675 73.8267 108.984 74.392C109.304 74.9467 109.726 75.3787 110.248 75.688C110.771 75.9973 111.347 76.152 111.976 76.152ZM126.406 72.152C126.406 73.3253 126.64 74.264 127.11 74.968C127.579 75.6613 128.336 76.008 129.382 76.008C130.438 76.008 131.2 75.6613 131.67 74.968C132.139 74.264 132.374 73.3253 132.374 72.152V65.864H136.374V72.616C136.374 73.9707 136.102 75.16 135.558 76.184C135.014 77.1973 134.219 77.9867 133.174 78.552C132.139 79.1067 130.875 79.384 129.382 79.384C127.899 79.384 126.635 79.1067 125.59 78.552C124.555 77.9867 123.766 77.1973 123.222 76.184C122.678 75.16 122.406 73.9707 122.406 72.616V65.864H126.406V72.152ZM146.428 76.152C147.121 76.152 147.686 76.0347 148.124 75.8C148.561 75.5653 148.849 75.3893 148.988 75.272L150.876 78.072C150.726 78.1893 150.449 78.3547 150.044 78.568C149.638 78.7813 149.121 78.968 148.492 79.128C147.873 79.2987 147.164 79.384 146.364 79.384C144.977 79.384 143.734 79.1067 142.636 78.552C141.537 77.9867 140.668 77.1867 140.028 76.152C139.398 75.1067 139.084 73.864 139.084 72.424C139.084 70.9733 139.398 69.7307 140.028 68.696C140.668 67.6613 141.537 66.8667 142.636 66.312C143.734 65.7573 144.977 65.48 146.364 65.48C147.153 65.48 147.852 65.5653 148.46 65.736C149.078 65.9067 149.596 66.104 150.012 66.328C150.428 66.5413 150.716 66.7173 150.876 66.856L148.94 69.672C148.865 69.5867 148.721 69.4693 148.508 69.32C148.294 69.1707 148.012 69.032 147.66 68.904C147.318 68.776 146.908 68.712 146.428 68.712C145.841 68.712 145.281 68.8667 144.748 69.176C144.225 69.4853 143.798 69.9173 143.468 70.472C143.137 71.0267 142.972 71.6773 142.972 72.424C142.972 73.1707 143.137 73.8267 143.468 74.392C143.798 74.9467 144.225 75.3787 144.748 75.688C145.281 75.9973 145.841 76.152 146.428 76.152ZM153.321 79V65.864H157.369V79H153.321ZM155.401 62.472C154.729 62.472 154.158 62.2373 153.689 61.768C153.23 61.2987 153.001 60.7387 153.001 60.088C153.001 59.4373 153.236 58.872 153.705 58.392C154.174 57.912 154.74 57.672 155.401 57.672C155.838 57.672 156.238 57.784 156.601 58.008C156.964 58.2213 157.257 58.5093 157.481 58.872C157.705 59.2347 157.817 59.64 157.817 60.088C157.817 60.7387 157.577 61.2987 157.097 61.768C156.628 62.2373 156.062 62.472 155.401 62.472ZM169.45 65.48C170.346 65.48 171.22 65.6667 172.074 66.04C172.927 66.4027 173.626 66.984 174.17 67.784C174.724 68.584 175.002 69.6293 175.002 70.92V79H170.922V71.624C170.922 70.5467 170.666 69.7467 170.154 69.224C169.652 68.7013 168.991 68.44 168.17 68.44C167.636 68.44 167.124 68.5893 166.634 68.888C166.154 69.176 165.759 69.5813 165.45 70.104C165.151 70.616 165.002 71.2027 165.002 71.864V79H160.938V65.864H165.002V67.96C165.119 67.5973 165.386 67.224 165.802 66.84C166.218 66.456 166.746 66.136 167.386 65.88C168.026 65.6133 168.714 65.48 169.45 65.48ZM184.816 86.024C183.856 86.024 182.933 85.9333 182.048 85.752C181.173 85.5707 180.378 85.288 179.664 84.904C178.949 84.52 178.352 84.0187 177.872 83.4L180.336 80.904C180.56 81.192 180.848 81.48 181.2 81.768C181.562 82.0667 182.021 82.312 182.576 82.504C183.13 82.7067 183.824 82.808 184.656 82.808C185.445 82.808 186.122 82.6533 186.688 82.344C187.264 82.0453 187.706 81.6187 188.016 81.064C188.336 80.5093 188.496 79.864 188.496 79.128V78.76H192.48V79.368C192.48 80.8187 192.138 82.04 191.456 83.032C190.773 84.024 189.856 84.7707 188.704 85.272C187.552 85.7733 186.256 86.024 184.816 86.024ZM188.496 79V76.712C188.4 76.9467 188.154 77.2773 187.76 77.704C187.365 78.1307 186.832 78.52 186.16 78.872C185.498 79.2133 184.72 79.384 183.824 79.384C182.565 79.384 181.45 79.0853 180.48 78.488C179.509 77.88 178.746 77.0533 178.192 76.008C177.648 74.952 177.376 73.7627 177.376 72.44C177.376 71.1173 177.648 69.9333 178.192 68.888C178.746 67.832 179.509 67 180.48 66.392C181.45 65.784 182.565 65.48 183.824 65.48C184.698 65.48 185.455 65.6293 186.095 65.928C186.746 66.216 187.269 66.5573 187.664 66.952C188.069 67.336 188.33 67.6827 188.448 67.992V65.864H192.48V79H188.496ZM181.36 72.44C181.36 73.176 181.525 73.8267 181.856 74.392C182.186 74.9467 182.624 75.3787 183.168 75.688C183.712 75.9973 184.304 76.152 184.944 76.152C185.616 76.152 186.213 75.9973 186.736 75.688C187.258 75.368 187.669 74.9307 187.968 74.376C188.277 73.8107 188.432 73.1653 188.432 72.44C188.432 71.7147 188.277 71.0747 187.968 70.52C187.669 69.9547 187.258 69.512 186.736 69.192C186.213 68.872 185.616 68.712 184.944 68.712C184.304 68.712 183.712 68.872 183.168 69.192C182.624 69.5013 182.186 69.9387 181.856 70.504C181.525 71.0587 181.36 71.704 181.36 72.44Z" fill="#678366"/>
<g filter="url(#filter0_di_61_31)">
<rect x="39" y="239" width="80" height="80" rx="40" fill="#A0BE98"/>
</g>
<path d="M89.7363 277.32L70.8787 266.346C69.3465 265.455 67 266.32 67 268.524V290.466C67 292.444 69.1804 293.635 70.8787 292.644L89.7363 281.676C91.4185 280.7 91.4239 278.295 89.7363 277.32V277.32Z" fill="#FAFAFA"/>
<defs>
<filter id="filter0_di_61_31" x="19" y="219" width="120" height="120" filterUnits="userSpaceOnUse" color-interpolation-filters="sRGB">
<feFlood flood-opacity="0" result="BackgroundImageFix"/>
<feColorMatrix in="SourceAlpha" type="matrix" values="0 0 0 0 0 0 0 0 0 0 0 0 0 0 0 0 0 0 127 0" result="hardAlpha"/>
<feOffset/>
<feGaussianBlur stdDeviation="10"/>
<feComposite in2="hardAlpha" operator="out"/>
<feColorMatrix type="matrix" values="0 0 0 0 0.627451 0 0 0 0 0.745098 0 0 0 0 0.596078 0 0 0 0.61 0"/>
<feBlend mode="normal" in2="BackgroundImageFix" result="effect1_dropShadow_61_31"/>
<feBlend mode="normal" in="SourceGraphic" in2="effect1_dropShadow_61_31" result="shape"/>
<feColorMatrix in="SourceAlpha" type="matrix" values="0 0 0 0 0 0 0 0 0 0 0 0 0 0 0 0 0 0 127 0" result="hardAlpha"/>
<feOffset dx="-16" dy="-16"/>
<feGaussianBlur stdDeviation="30"/>
<feComposite in2="hardAlpha" operator="arithmetic" k2="-1" k3="1"/>
<feColorMatrix type="matrix" values="0 0 0 0 0.422512 0 0 0 0 0.620833 0 0 0 0 0.382847 0 0 0 1 0"/>
<feBlend mode="normal" in2="shape" result="effect2_innerShadow_61_31"/>
</filter>
</defs>
</svg>
